<?xml version="1.0" encoding="utf-8"?>
<!-- Generator: Adobe Illustrator 25.4.1, SVG Export Plug-In . SVG Version: 6.00 Build 0)  -->
<svg version="1.1" id="Layer_1" xmlns="http://www.w3.org/2000/svg" xmlns:xlink="http://www.w3.org/1999/xlink" x="0px" y="0px"
	 viewBox="0 0 1080 1080" style="enable-background:new 0 0 1080 1080;" xml:space="preserve">
<style type="text/css">
	.st0{fill:#0B76D8;}
</style>
<g>
	<path class="st0" d="M222.83,535.46c0.35,0.77,0.58,1.31,0.84,1.84c3.48,7.07,6.92,14.17,10.48,21.2c2.28,4.5,2.09,8.76-0.59,13.01
		c-3.18,5.03-6.27,10.12-9.4,15.18c-0.29,0.47-0.55,0.95-0.94,1.62c0.83,0.11,1.51,0.2,2.19,0.29c6.1,0.79,10.63,6.19,10.36,12.36
		c-0.27,6.16-5.27,11.32-11.37,11.42c-7.73,0.13-15.47,0.16-23.2,0c-7.34-0.16-13.36-7.69-10.4-15.68c0.4-1.09,0.98-2.12,1.59-3.12
		c5.6-9.22,11.23-18.42,16.85-27.62c0.32-0.52,0.62-1.05,0.95-1.6c-0.22-0.48-0.41-0.94-0.64-1.4c-4.19-8.48-8.4-16.95-12.55-25.45
		c-0.52-1.07-1.09-1.59-2.31-1.44c-0.9,0.11-1.81,0.02-2.85,0.02c-0.07,0.97-0.17,1.82-0.19,2.67c-0.16,5.85-0.29,11.7-0.47,17.55
		c-0.05,1.47-0.09,2.97-0.43,4.39c-0.92,3.89-3.4,6.53-7.04,8.07c-4.4,1.86-8.83,3.66-13.25,5.48c-6.49,2.68-12.97,5.35-19.46,8.03
		c-0.51,0.21-1.01,0.45-1.62,0.73c0.23,0.46,0.41,0.87,0.63,1.25c1.01,1.77,2.07,3.51,3.03,5.3c2.62,4.85,1.65,10.63-2.36,14.39
		c-4,3.75-12.05,5.07-17.35-1.78c-0.31-0.4-0.58-0.83-0.84-1.27c-3.39-5.85-6.79-11.7-10.17-17.57c-1.65-2.87-1.99-5.95-1.36-9.15
		c0.79-3.95,3.12-6.67,6.82-8.19c3.76-1.54,7.55-3.02,11.34-4.52c8.98-3.56,17.96-7.13,26.94-10.69c0.52-0.21,1.03-0.43,1.67-0.7
		c0.12-4.39,0.23-8.78,0.35-13.37c-0.84,0-1.49,0-2.13,0c-20.81,0-41.63,0.01-62.44-0.02c-1.36,0-2.77-0.06-4.08-0.39
		c-5.34-1.33-9.37-6.39-8.92-12.59c0.4-5.5,4.86-10.21,10.48-10.83c1.46-0.16,2.94-0.12,4.42-0.16c0.76-0.02,1.51,0,2.46,0
		c0.21-1.58,0.4-3.06,0.62-4.73c-0.67-0.02-1.27-0.06-1.86-0.06c-6.62,0-13.23,0.04-19.85-0.03c-1.56-0.02-3.17-0.21-4.65-0.68
		c-5.48-1.75-8.85-7.34-8.02-13.05c0.84-5.75,5.72-10.17,11.57-10.22c8.55-0.08,17.1-0.03,25.65-0.03c1.32,0,2.64,0,4.15,0
		c0.79-1.52,1.6-3.06,2.55-4.88c-0.91,0-1.5,0-2.1,0c-15.22,0-30.43,0-45.65-0.01c-1.17,0-2.36-0.01-3.49-0.24
		c-5.3-1.09-9.22-5.55-9.54-10.72c-0.35-5.69,2.92-10.66,8.26-12.57c1.66-0.59,3.37-0.73,5.11-0.73
		c21.32,0.01,42.64-0.01,63.97,0.03c1.47,0,2.56-0.42,3.69-1.36c11.13-9.24,23.75-15.4,38.01-18.1c0.25-0.05,0.5-0.09,0.74-0.17
		c0.14-0.04,0.25-0.16,0.44-0.28c-1.7-3.72-1.93-7.55-0.68-11.44c1.06-3.29,3-5.99,5.75-8.08c5.56-4.22,13.05-4.52,18.88-0.73
		c3.42,2.22,5.69,5.34,6.81,9.26c1.11,3.86,0.71,7.64-0.98,11.52c19.21,3.51,35.33,12.35,48.5,26.52
		c13.21,14.21,20.39,31.14,22.64,50.45c0.82,0,1.63-0.02,2.43,0c5.06,0.12,8.83,2.41,11.29,6.83c1.62,2.92,1.72,5.93,0.35,8.94
		c-2.07,4.53-5.65,6.93-10.61,7.27c-0.71,0.05-1.42,0.02-2.14,0.02c-18.27,0-36.54,0-54.81,0
		C224.29,535.46,223.7,535.46,222.83,535.46z M255.77,505.27c0.09-3.17-0.49-5.97-1.17-8.73c-2.82-11.47-8.86-21-17.57-28.86
		c-5.6-5.06-12.1-8.54-19.4-10.49c-4.43-1.18-8.67,1.99-8.78,6.56c-0.08,3.46,1.95,6.15,5.61,7.24c4.56,1.36,8.6,3.58,12.19,6.7
		c8.58,7.46,13.61,16.8,15.01,28.1c0.07,0.55,0.13,1.12,0.3,1.65c0.82,2.57,2.29,4.56,5.11,5.1c3,0.57,6.96-0.43,8.37-3.96
		C255.92,507.34,255.64,506.16,255.77,505.27z"/>
	<path class="st0" d="M558.74,524.42c0.22-0.24,0.41-0.4,0.54-0.6c1.82-2.82,4.25-5.06,6.79-7.18c2.21-1.84,4.69-3.18,7.41-4.16
		c10.29-3.71,20.65-3.89,30.95-0.3c11.86,4.13,20.04,12.27,25.08,23.71c2.85,6.46,4.39,13.18,4.64,20.24
		c0.27,7.61,0.05,15.19-2.02,22.56c-3.73,13.28-11.32,23.69-23.54,30.38c-7.41,4.06-15.41,5.7-23.85,5
		c-2.84-0.24-5.72-0.32-8.48-0.93c-5.94-1.31-10.83-4.53-14.89-9.03c-0.51-0.57-1.01-1.14-1.52-1.7c-0.03-0.03-0.1-0.02-0.18-0.03
		c-0.61,0.41-0.45,1.05-0.45,1.64c-0.01,4.48-0.01,8.96-0.01,13.44c0,10.33,0.05,20.66-0.02,30.99c-0.04,5.43-2.64,9.46-7.45,11.88
		c-7.46,3.74-16.5-0.44-18.73-8.55c-0.42-1.53-0.64-3.07-0.64-4.67c0.02-40.26,0.02-80.51,0.01-120.77c0-2.05,0.12-4.08,0.9-6
		c1.93-4.8,5.61-7.47,10.63-8.01c6.64-0.71,11.78,2.86,13.86,9.25C558.07,522.5,558.39,523.4,558.74,524.42z M559.12,561.15
		c-0.04,3.82,0.3,7.4,1.32,10.9c3.49,11.96,14.01,18.96,26.36,17.55c9.59-1.1,17.55-8.05,20.08-17.6c1.98-7.48,1.6-14.95-0.78-22.24
		c-3.3-10.14-11.6-16.38-22.17-16.49c-9.59-0.09-16.99,4-21.38,12.76C560.15,550.82,558.87,555.93,559.12,561.15z"/>
	<path class="st0" d="M723.56,521.55c0.07-0.58,0.2-1.15,0.2-1.73c0.03-3.87,0.02-7.73,0.06-11.6c0.08-10.02,0.16-20.05,0.28-30.07
		c0.07-6.06,4.29-11.36,9.99-12.69c7.18-1.68,14.2,2.59,15.9,9.76c0.37,1.57,0.58,3.21,0.58,4.82
		c-0.07,39.74-0.18,79.47-0.31,119.21c0,1.31-0.12,2.66-0.41,3.93c-1.59,6.95-8.37,11.05-15.29,9.25c-5.24-1.36-8.6-4.63-9.89-9.93
		c-0.21-0.87-0.24-1.8-0.35-2.76c-0.09,0.11-0.22,0.23-0.31,0.38c-2.16,3.2-4.97,5.77-8.01,8.11c-2.63,2.02-5.69,3.11-8.83,4.03
		c-10.42,3.06-20.69,2.7-30.78-1.37c-9.22-3.72-15.92-10.22-20.63-18.86c-3.8-6.97-6.07-14.39-6.52-22.36
		c-0.26-4.57-0.55-9.14-0.21-13.72c1.04-13.78,6.35-25.56,16.59-34.95c6.89-6.31,15.09-9.89,24.34-11.03
		c3.8-0.47,7.62-0.23,11.43,0.08c1.62,0.13,3.26,0.26,4.84,0.61c6.22,1.36,11.33,4.62,15.54,9.36c0.47,0.53,0.92,1.06,1.38,1.59
		C723.29,521.58,723.43,521.56,723.56,521.55z M724.06,562.55c-0.28-2.62-0.4-5.28-0.88-7.86c-0.92-4.99-2.87-9.54-6.48-13.22
		c-7.85-7.99-19.47-9.63-29.33-4.26c-5.05,2.75-8.65,6.98-10.41,12.47c-2.32,7.25-2.67,14.64-0.83,22.1
		c2.93,11.85,13.25,20.43,26.52,18.71c7.49-0.97,13.39-4.61,17.04-11.42C722.45,573.92,724.19,568.5,724.06,562.55z"/>
	<path class="st0" d="M938.76,519.56c0.43-0.31,0.61-0.4,0.75-0.53c4.65-4.65,10.31-7.34,16.67-8.69c6.72-1.43,13.42-1.52,20.08,0.4
		c11.37,3.29,18.89,10.57,22.64,21.78c1.68,5.01,2.58,10.15,2.58,15.43c0.01,16.89,0.01,33.79,0.01,50.68
		c0,5.67-2.47,9.93-7.53,12.46c-8.27,4.13-18.06-1.43-18.87-10.61c-0.08-0.96-0.11-1.93-0.11-2.9c-0.01-14.6-0.01-29.21-0.01-43.81
		c0-2.85-0.13-5.69-0.93-8.46c-2-6.92-6.65-10.72-13.7-11.72c-2.84-0.4-5.7-0.54-8.48,0.25c-6.17,1.74-10.09,5.87-12.13,11.84
		c-0.89,2.61-1.29,5.32-1.28,8.1c0.03,14.81,0.03,29.61-0.01,44.42c0,1.61-0.14,3.27-0.54,4.83c-1.32,5.08-4.88,8.04-9.76,9.31
		c-4.86,1.26-9.05-0.32-12.46-3.9c-2.62-2.74-3.73-6.08-3.73-9.87c0.02-33.08,0.01-66.15,0.01-99.23c0-6.97,0.01-13.94,0-20.91
		c0-2.01,0.32-3.95,1.07-5.81c3.81-9.38,16.45-11.06,22.8-3.03c2.04,2.58,2.96,5.52,2.96,8.79c-0.01,13.08,0,26.15,0,39.23
		C938.76,518.15,938.76,518.7,938.76,519.56z"/>
	<path class="st0" d="M339.05,512.72c0.03-0.67,0.07-1.12,0.08-1.57c0.1-4.68,0.08-9.36,0.31-14.04c0.78-15.91,11.08-28.32,27-31.45
		c6.67-1.31,13.35-1.24,19.92,0.81c3.22,1,5.89,2.75,7.81,5.54c1.89,2.74,2.58,5.76,1.69,9c-1.09,3.96-3.81,6.27-7.78,7.1
		c-1.09,0.23-2.22,0.26-3.34,0.31c-1.93,0.08-3.86,0.13-5.8,0.16c-2.11,0.03-4.14,0.52-6.09,1.26c-4.17,1.56-6.7,4.53-7.31,8.97
		c-0.65,4.76-0.17,9.53-0.22,14.46c0.65,0.04,1.18,0.11,1.72,0.11c4.32,0.01,8.65,0,12.97,0.01c1.9,0,3.75,0.23,5.51,1.02
		c4.68,2.1,7.29,6.58,6.7,11.55c-0.6,5.03-4.42,9.16-9.31,10.03c-0.69,0.12-1.42,0.12-2.13,0.12c-4.63,0.01-9.26,0.01-13.89,0.01
		c-0.55,0-1.1,0-1.81,0c-0.02,0.78-0.06,1.42-0.06,2.07c0,19.79,0.01,39.59-0.02,59.38c0,1.71-0.09,3.49-0.52,5.13
		c-2.38,9.14-13.82,12.81-21.23,6.86c-3.39-2.72-5.07-6.25-5.06-10.62c0.02-20.4,0.01-40.81,0.01-61.21c0-0.66,0-1.31,0-2.15
		c-0.63-0.03-1.17-0.08-1.7-0.08c-3.87-0.01-7.74,0.05-11.6-0.03c-5.1-0.1-9.51-3.8-10.58-8.76c-1.52-7.05,3.8-13.82,11.01-13.94
		c3.97-0.06,7.94-0.01,11.91-0.02C337.78,512.72,338.33,512.72,339.05,512.72z"/>
	<path class="st0" d="M855.28,509.76c6.33,0.2,12.59,0.76,18.7,2.54c6.74,1.96,11.72,6.16,15.43,11.98c1.8,2.83,1.96,5.88,0.51,8.89
		c-1.74,3.61-4.63,5.86-8.57,6.7c-2.13,0.45-4.19,0.05-6.06-0.95c-1.6-0.86-3.09-1.94-4.58-3.01c-1.44-1.04-2.77-2.24-4.22-3.26
		c-4.96-3.51-12.73-3.5-17.7,0.03c-0.82,0.58-1.58,1.31-2.19,2.1c-3.53,4.58-1.9,10.69,3.47,12.85c1.5,0.6,3.1,0.97,4.68,1.35
		c6.47,1.55,12.99,2.93,19.42,4.64c7.36,1.95,13.45,5.93,17.82,12.3c3.96,5.78,5.42,12.19,4.75,19.13
		c-1.34,13.79-11.6,25.28-26.58,27.98c-4.82,0.87-9.66,1.48-14.56,1.22c-9.52-0.51-18.3-3.15-25.87-9.17
		c-2.65-2.1-4.92-4.57-6.82-7.36c-3.08-4.52-2.59-9.56,1.3-13.45c4.14-4.15,9.25-4.67,14.12-1.41c0.88,0.59,1.69,1.3,2.47,2.03
		c1.08,1.01,2.07,2.11,3.14,3.12c5.59,5.24,12.16,6.66,19.51,4.94c1.8-0.42,3.42-1.3,4.81-2.55c4.67-4.2,3.94-11.19-1.49-14.33
		c-1.82-1.05-3.82-1.63-5.85-2.14c-6.75-1.71-13.56-3.19-20.22-5.21c-9.87-2.99-16.45-9.62-19.23-19.56
		c-2.45-8.74-0.66-16.95,4.49-24.38c5.62-8.12,13.5-12.79,23.13-14.55C851.1,509.85,853.21,509.9,855.28,509.76z"/>
	<path class="st0" d="M440.42,527.78c0,16.23,0,32.46,0,48.69c0,0.76-0.02,1.53,0.09,2.28c0.59,4.02,3.62,6.7,7.72,6.86
		c5.06,0.2,9.06,2.33,11.58,6.75c5.07,8.88-0.82,20.15-11.46,20.37c-15.57,0.31-29.65-10.45-33.83-25.79
		c-0.91-3.36-1.25-6.78-1.25-10.26c0.02-29.56,0.01-59.12,0.01-88.69c0-3.31-0.03-6.62,0.02-9.92c0.05-2.88,0.97-5.49,2.7-7.8
		c3.45-4.59,9.47-6.48,15.02-4.71c5.48,1.74,9.2,6.68,9.37,12.45c0.02,0.71,0.02,1.42,0.02,2.14
		C440.42,496.03,440.42,511.9,440.42,527.78z"/>
	<path class="st0" d="M478.25,562.08c0-12.06,0.02-24.12-0.01-36.17c-0.01-2.6,0.41-5.06,1.71-7.33c2.86-5.01,8.49-7.61,14.13-6.52
		c5.51,1.07,9.82,5.75,10.53,11.46c0.1,0.81,0.16,1.62,0.17,2.43c0.11,24.27,0.23,48.54,0.29,72.8c0.02,7.55-4.89,12.94-12.35,13.79
		c-5.09,0.58-10.68-2.61-13.12-7.49c-0.98-1.95-1.36-4.01-1.36-6.19C478.26,586.6,478.25,574.34,478.25,562.08z"/>
	<path class="st0" d="M774.78,562.24c0-11.96,0.01-23.92-0.01-35.88c0-1.79,0.14-3.55,0.69-5.27c1.78-5.49,7.25-9.42,12.86-9.24
		c5.89,0.18,11.15,4.15,12.5,9.66c0.46,1.9,0.52,3.93,0.52,5.9c0.02,11.3-0.32,22.6,0.02,33.89c0.37,12.51,0.05,25.01,0.23,37.51
		c0.04,2.48-0.5,4.85-1.71,7.04c-4.11,7.43-14.55,8.93-20.88,2.96c-2.8-2.64-4.25-5.87-4.24-9.78
		C774.8,586.77,774.78,574.51,774.78,562.24z"/>
	<path class="st0" d="M804.74,480.67c0.26,8.97-7.57,16.46-16.37,16.44c-9.07-0.03-16.56-7.32-16.49-16.15
		c0.08-9.43,7.48-16.6,17.06-16.67C797.59,464.23,804.98,471.79,804.74,480.67z"/>
	<path class="st0" d="M491.89,497.1c-9,0.04-16.46-7.31-16.54-16.31c-0.08-9.07,7.18-16.42,16.28-16.48
		c9.13-0.07,16.53,7.34,16.57,16.57C508.25,489.86,501.01,497.06,491.89,497.1z"/>
</g>
</svg>
